HIERARCHY
ROOT Hips
{
	OFFSET 0.000000 0.000000 0.000000
	CHANNELS 6 Xposition Yposition Zposition Zrotation Yrotation Xrotation 
	JOINT LowerBack
	{
		OFFSET 0.000000 0.000000 0.000000
		CHANNELS 3 Zrotation Yrotation Xrotation
		JOINT Spine
		{
			OFFSET 0.028270 2.035590 -0.193380
			CHANNELS 3 Zrotation Yrotation Xrotation
			JOINT Spine1
			{
				OFFSET 0.056720 2.048850 -0.042750
				CHANNELS 3 Zrotation Yrotation Xrotation
				JOINT Neck
				{
					OFFSET 0.000000 0.000000 0.000000
					CHANNELS 3 Zrotation Yrotation Xrotation
					JOINT Neck1
					{
						OFFSET -0.054170 1.746240 0.172020
						CHANNELS 3 Zrotation Yrotation Xrotation
						JOINT Head
						{
							OFFSET 0.104070 1.761360 -0.123970
							CHANNELS 3 Zrotation Yrotation Xrotation
							End Site
							{
								OFFSET 0.000000 0.000000 0.000000
							}
						}
					}
				}
				JOINT LeftShoulder
				{
					OFFSET 0.000000 0.000000 0.000000
					CHANNELS 3 Zrotation Yrotation Xrotation
					JOINT LeftArm
					{
						OFFSET 3.362410 1.200890 -0.311210
						CHANNELS 3 Zrotation Yrotation Xrotation
						JOINT LeftForeArm
						{
							OFFSET 4.983000 -0.000000 -0.000000
							CHANNELS 3 Zrotation Yrotation Xrotation
							JOINT LeftHand
							{
								OFFSET 3.483560 -0.000000 -0.000000
								CHANNELS 3 Zrotation Yrotation Xrotation
								JOINT LeftFingerBase
								{
									OFFSET 0.000000 0.000000 0.000000
									CHANNELS 3 Zrotation Yrotation Xrotation
									JOINT LeftHandIndex1
									{
										OFFSET 0.715260 -0.000000 -0.000000
										CHANNELS 3 Zrotation Yrotation Xrotation
										End Site
										{
											OFFSET 0.000000 0.000000 0.000000
										}
									}
								}
								JOINT LThumb
								{
									OFFSET 0.000000 0.000000 0.000000
									CHANNELS 3 Zrotation Yrotation Xrotation
									End Site
									{
										OFFSET 0.000000 0.000000 0.000000
									}
								}
							}
						}
					}
				}
				JOINT RightShoulder
				{
					OFFSET 0.000000 0.000000 0.000000
					CHANNELS 3 Zrotation Yrotation Xrotation
					JOINT RightArm
					{
						OFFSET -3.136600 1.374050 -0.404650
						CHANNELS 3 Zrotation Yrotation Xrotation
						JOINT RightForeArm
						{
							OFFSET -5.241900 -0.000000 -0.000000
							CHANNELS 3 Zrotation Yrotation Xrotation
							JOINT RightHand
							{
								OFFSET -3.444170 -0.000000 -0.000000
								CHANNELS 3 Zrotation Yrotation Xrotation
								JOINT RightFingerBase
								{
									OFFSET 0.000000 0.000000 0.000000
									CHANNELS 3 Zrotation Yrotation Xrotation
									JOINT RightHandIndex1
									{
										OFFSET -0.622530 -0.000000 -0.000000
										CHANNELS 3 Zrotation Yrotation Xrotation
										End Site
										{
											OFFSET 0.000000 0.000000 0.000000
										}
									}
								}
								JOINT RThumb
								{
									OFFSET 0.000000 0.000000 0.000000
									CHANNELS 3 Zrotation Yrotation Xrotation
									End Site
									{
										OFFSET 0.000000 0.000000 0.000000
									}
								}
							}
						}
					}
				}
			}
		}
	}
}
}
MOTION
Frames: 15
Frame Time: 0.008333
1.006555 17.117127 0.831976 -136.144710 -89.736198 162.566224 1.891985 -0.558670 4.554497 -0.560975 -0.583612 -1.946884 -6.461943 -0.680052 0.667781 13.056896 4.838784 4.995303 -3.807407 -0.373098 2.999797 0.000000 0.000000 0.000000 -4.300395 -6.874227 2.026434 -63.530027 -13.423406 0.476609 -2.744539 -2.487773 -0.027516 16.706374 5.146992 0.748304 -0.069879 0.073585 -0.000000 0.000000 0.000000 0.000000 0.000000 0.000000 0.000000 18.441439 2.085133 -0.674751 70.351807 17.624618 4.700815 2.268872 29.763364 0.004423 0.186125 9.528142 0.014343 0.020416 -0.115053 0.000000 0.000000 0.000000 0.000000 0.000000 0.000000 0.000000 
0.757806 17.240443 0.783400 67.391723 -89.928201 -40.677545 1.406273 -0.538724 4.313760 -0.659760 -0.552278 -1.982529 -6.416176 -0.644673 0.722009 12.696342 4.742149 4.980786 -3.801434 -0.374449 2.989350 0.000000 0.000000 0.000000 -4.094122 -6.384134 2.064156 -62.616000 -12.055428 0.323059 -2.853589 -2.867867 -0.028522 16.296598 6.944014 0.989389 -0.072762 0.070068 -0.000000 0.000000 0.000000 0.000000 0.000000 0.000000 0.000000 18.111119 2.182974 -0.843348 72.093783 18.160520 8.681239 2.277881 31.260602 0.005501 1.883264 9.603742 0.160033 0.005850 -0.119443 0.000000 0.000000 0.000000 0.000000 0.000000 0.000000 0.000000 
0.507317 17.361077 0.738320 95.303707 -89.427148 -68.287805 0.624090 -0.487730 4.079296 -0.828322 -0.484590 -2.012925 -6.363946 -0.571628 0.792610 12.308962 4.627046 4.946647 -3.796871 -0.375866 2.973121 0.000000 0.000000 0.000000 -3.915428 -5.770691 2.086321 -61.699508 -11.034739 0.226925 -2.987462 -2.900255 -0.029042 15.508488 8.240058 1.119981 -0.077641 0.066853 -0.000000 0.000000 0.000000 0.000000 0.000000 0.000000 0.000000 17.780893 2.277719 -1.013944 73.729925 18.711220 12.634050 2.258303 32.904807 0.006304 3.296600 9.726563 0.285317 -0.008638 -0.125982 0.000000 0.000000 0.000000 0.000000 0.000000 0.000000 0.000000 
0.255363 17.477455 0.697048 122.222278 -88.757895 -94.909630 -0.325161 -0.318039 3.860628 -1.041832 -0.292479 -2.039617 -6.319316 -0.373886 0.875526 11.881913 4.481425 4.887442 -3.796899 -0.377400 2.949894 0.000000 0.000000 0.000000 -3.779113 -4.994503 2.080240 -60.772926 -10.278844 0.107162 -3.139961 -2.730843 -0.028891 14.360141 9.039210 1.139178 -0.083979 0.063153 -0.000000 0.000000 0.000000 0.000000 0.000000 0.000000 0.000000 17.447344 2.401964 -1.174453 75.262928 19.324470 16.547699 2.221139 34.629529 0.007084 4.381402 9.898246 0.387001 -0.021457 -0.135302 0.000000 0.000000 0.000000 0.000000 0.000000 0.000000 0.000000 
0.006860 17.591520 0.650673 153.383940 -86.981714 -125.935549 -1.770179 0.194480 3.785623 -1.378605 0.270746 -2.055555 -6.310613 0.192693 0.925292 11.470046 4.384973 4.830278 -3.809414 -0.380361 2.919930 0.000000 0.000000 0.000000 -3.583035 -4.028443 2.028136 -59.757739 -9.808550 0.454720 -3.334926 -2.164021 -0.027741 12.801764 9.391490 1.056580 -0.092246 0.056999 -0.000000 0.000000 0.000000 0.000000 0.000000 0.000000 0.000000 17.237481 2.785744 -1.287164 76.711703 19.995160 20.235579 2.176241 36.395619 0.008099 5.178205 10.069787 0.466592 -0.032750 -0.149185 0.000000 0.000000 0.000000 0.000000 0.000000 0.000000 0.000000 
-0.246438 17.694497 0.617113 161.836615 -86.119254 -134.167841 -2.325042 0.519388 3.605138 -1.515271 0.613355 -2.085743 -6.306167 0.537596 0.997502 10.967890 4.268562 4.758611 -3.805771 -0.381548 2.894902 0.000000 0.000000 0.000000 -3.573833 -3.109299 1.989518 -58.803238 -9.508784 1.012578 -3.516133 -1.425337 -0.025924 10.946298 9.267048 0.892587 -0.099826 0.051399 -0.000000 0.000000 0.000000 0.000000 0.000000 0.000000 0.000000 16.807711 3.009283 -1.430721 78.092500 20.636187 23.790542 2.117098 38.227858 0.009020 5.667704 10.251922 0.520983 -0.041051 -0.162359 0.000000 0.000000 0.000000 0.000000 0.000000 0.000000 0.000000 
-0.499908 17.788133 0.587017 168.364678 -85.215916 -140.521817 -2.775196 0.848088 3.453605 -1.630617 0.956912 -2.115239 -6.306868 0.882824 1.055026 10.431157 4.174935 4.687007 -3.796316 -0.382431 2.870935 0.000000 0.000000 0.000000 -3.613392 -2.193252 1.944698 -57.854221 -9.321860 1.875646 -3.705228 -0.518562 -0.023262 8.863426 8.676190 0.678099 -0.107652 0.044818 -0.000000 0.000000 0.000000 0.000000 0.000000 0.000000 0.000000 16.310098 3.252397 -1.571766 79.437841 21.274474 27.116057 2.047241 40.073794 0.009867 5.902475 10.408268 0.551977 -0.047086 -0.176394 0.000000 0.000000 0.000000 0.000000 0.000000 0.000000 0.000000 
-0.753457 17.870950 0.559930 173.399838 -84.297019 -145.427369 -3.142119 1.166114 3.332289 -1.727937 1.287033 -2.143926 -6.308818 1.214160 1.094084 9.859479 4.097230 4.613665 -3.780628 -0.382970 2.847838 0.000000 0.000000 0.000000 -3.685735 -1.305109 1.895984 -56.930026 -9.158933 3.033362 -3.894218 0.440170 -0.019846 6.680217 7.662696 0.453213 -0.115418 0.037184 -0.000000 0.000000 0.000000 0.000000 0.000000 0.000000 0.000000 15.738583 3.502331 -1.710516 80.776033 21.915502 30.201863 1.972465 41.899096 0.010630 5.940158 10.527191 0.562875 -0.050918 -0.190718 0.000000 0.000000 0.000000 0.000000 0.000000 0.000000 0.000000 
-1.006432 17.941802 0.535247 177.321731 -83.371232 -149.260682 -3.446707 1.440268 3.254685 -1.809560 1.571324 -2.176706 -6.309760 1.498497 1.087319 9.239164 4.028655 4.525549 -3.765074 -0.383408 2.822680 0.000000 0.000000 0.000000 -3.748566 -0.524516 1.869139 -55.990588 -7.808727 4.530462 -4.080056 -1.074021 -0.017938 4.538472 7.371907 0.299234 -0.123287 0.025363 -0.000000 0.000000 0.000000 0.000000 0.000000 0.000000 0.000000 15.103022 3.794752 -1.829071 82.107427 22.563654 33.137645 1.903580 43.713753 0.011456 5.753585 10.594655 0.549487 -0.050903 -0.205643 -0.000000 0.000000 0.000000 0.000000 0.000000 0.000000 0.000000 
-1.258734 18.000109 0.512225 -179.651045 -82.480022 -152.237930 -3.703597 1.683389 3.203573 -1.879493 1.822486 -2.209857 -6.312143 1.749227 1.056597 8.597221 3.972502 4.433080 -3.742795 -0.383422 2.798248 0.000000 0.000000 0.000000 -3.815917 0.177900 1.853456 -55.036412 -6.336837 6.249944 -4.243876 -2.712473 -0.016118 2.548280 6.817023 0.159154 -0.130582 0.011960 -0.000000 0.000000 0.000000 0.000000 0.000000 0.000000 0.000000 14.405048 4.091193 -1.944963 83.456519 23.208710 35.839620 1.836150 45.491690 0.012173 5.472491 10.610336 0.524204 -0.049123 -0.220122 -0.000000 0.000000 0.000000 0.000000 0.000000 0.000000 0.000000 
-1.509997 18.045685 0.490172 -177.336796 -81.651530 -154.535393 -3.928552 1.888682 3.180933 -1.940623 2.034380 -2.241810 -6.316011 1.960353 1.004760 7.946085 3.919563 4.332143 -3.714667 -0.382956 2.773323 0.000000 0.000000 0.000000 -3.876317 0.804860 1.851040 -54.065775 -4.768622 8.132131 -4.376697 -4.429117 -0.014473 0.815050 6.060348 0.050372 -0.136919 -0.002673 -0.000000 0.000000 0.000000 0.000000 0.000000 0.000000 0.000000 13.663436 4.377136 -2.059971 84.816835 23.859950 38.343522 1.769935 47.239300 0.012749 5.126354 10.577937 0.490226 -0.045905 -0.233965 -0.000000 0.000000 0.000000 0.000000 0.000000 0.000000 0.000000 
-1.759740 18.078752 0.468493 -175.622759 -80.916364 -156.261614 -4.137022 2.050968 3.186276 -1.995936 2.202538 -2.272615 -6.321703 2.127403 0.930962 7.300988 3.867330 4.225448 -3.681312 -0.382032 2.748528 0.000000 0.000000 0.000000 -3.919525 1.339901 1.864132 -53.079604 -3.112102 10.080866 -4.473396 -6.184519 -0.013036 -0.584397 5.182871 -0.020112 -0.141988 -0.017979 -0.000000 0.000000 0.000000 0.000000 0.000000 0.000000 0.000000 12.897669 4.645698 -2.174649 86.180607 24.516365 40.649757 1.705679 48.962593 0.013211 4.766760 10.508431 0.453350 -0.041960 -0.247109 0.000000 0.000000 0.000000 0.000000 0.000000 0.000000 0.000000 
-2.007681 18.099768 0.446850 -174.413529 -80.300326 -157.503714 -4.339200 2.167077 3.218809 -2.047501 2.324299 -2.301560 -6.329435 2.247789 0.837538 6.674931 3.809945 4.114116 -3.643322 -0.380648 2.723886 0.000000 0.000000 0.000000 -3.943811 1.780698 1.893777 -52.077187 -1.390106 12.033430 -4.533044 -7.950443 -0.011814 -1.620095 4.280522 -0.055601 -0.145638 -0.033337 -0.000000 0.000000 0.000000 0.000000 0.000000 0.000000 0.000000 12.125219 4.887504 -2.290484 87.538818 25.181008 42.761297 1.644141 50.664796 0.013610 4.439089 10.420171 0.419174 -0.038001 -0.259615 -0.000000 0.000000 0.000000 0.000000 0.000000 0.000000 0.000000 
-2.253534 18.109107 0.425268 -173.592357 -79.819352 -158.371639 -4.535368 2.238047 3.278100 -2.095541 2.400804 -2.326050 -6.339005 2.322929 0.733729 6.077192 3.733650 3.993255 -3.601039 -0.378713 2.697653 0.000000 0.000000 0.000000 -3.950714 2.161204 1.938414 -51.063442 0.322258 13.955735 -4.558428 -9.675272 -0.010775 -2.304001 3.435103 -0.065592 -0.147926 -0.048028 -0.000000 0.000000 0.000000 0.000000 0.000000 0.000000 0.000000 11.358174 5.086588 -2.411764 88.883819 25.865941 44.695885 1.585951 52.346424 0.014005 4.173796 10.338440 0.391495 -0.034565 -0.271603 -0.000000 0.000000 0.000000 0.000000 0.000000 0.000000 0.000000 
-2.497187 18.107083 0.403946 -173.059330 -79.478780 -158.958673 -4.722360 2.268075 3.359918 -2.139542 2.436183 -2.346759 -6.349312 2.356954 0.619453 5.514625 3.638362 3.869740 -3.553923 -0.376271 2.671505 0.000000 0.000000 0.000000 -3.938832 2.468107 1.997421 -50.053193 2.019711 15.752897 -4.556373 -11.334781 -0.009894 -2.678542 2.713386 -0.061283 -0.149080 -0.061455 -0.000000 0.000000 0.000000 0.000000 0.000000 0.000000 0.000000 10.600471 5.243595 -2.539238 90.203167 26.563396 46.447637 1.530881 54.013205 0.014469 3.993827 10.283090 0.373014 -0.032194 -0.283325 -0.000000 0.000000 0.000000 0.000000 0.000000 0.000000 0.000000 
